<?xml version="1.0" encoding="utf-8"?>
<!-- Generator: Adobe Illustrator 27.5.0, SVG Export Plug-In . SVG Version: 6.00 Build 0)  -->
<svg version="1.1" id="Capa_1" xmlns="http://www.w3.org/2000/svg" xmlns:xlink="http://www.w3.org/1999/xlink" x="0px" y="0px"
	 viewBox="0 0 1133.9 566.9" style="enable-background:new 0 0 1133.9 566.9;" xml:space="preserve">
<g>
	<g>
		<g>
			<g>
				<g>
					<path d="M334.8,253.2V233h-80.7l0,0l-20.2,20.2v60.6c0,11.1,9,20.2,20.2,20.2h60.6c11.1,0,20.2-9,20.2-20.2v-20.2v-20.2h-50.5
						v20.2h30.3v20.2h-60.6v-60.6H334.8z"/>
					<path d="M375.2,233H355v80.7c0,11.1,9,20.2,20.2,20.2h80.7v-20.2h-80.7V233z"/>
					<path d="M556.8,313.7h-60.6V233h-20.2v80.7c0,11.1,9,20.2,20.2,20.2h60.6c11.2,0,20.2-9,20.2-20.2V233h-20.2V313.7z"/>
					<path d="M698.1,253.2V233h-80.7l0,0l-20.2,20.2v20.2v20.2v20.2c0,11.1,9,20.2,20.2,20.2h80.7v-20.2h-80.7v-20.2h40.4v-20.2
						h-40.4v-20.2H698.1z"/>
				</g>
				<polygon points="859.6,233 837.7,233 820.7,273.4 797.6,273.4 780.6,233 758.7,233 780,283.5 758.7,333.9 780.6,333.9 
					797.6,293.6 820.7,293.6 837.7,333.9 859.6,333.9 838.3,283.5 				"/>
			</g>
			<g>
				<path d="M869.7,235.3V233h13.6v2.3h-5.7v17.9h-2.3v-17.9H869.7z"/>
				<path d="M886.4,253.2V233h2.5l4.3,6.6l4.3-6.6h2.5v20.2h-2.3v-16.1l-3.2,4.7c-0.1,0.2-0.2,0.6-0.2,1.1v1.3H892V243
					c0-0.5-0.1-0.9-0.2-1.1l-3.2-4.7v16.1H886.4z"/>
			</g>
		</g>
	</g>
</g>
</svg>
